#!OML:ASF F:\VICON\USERDATA\INSTALL\rory3\rory3.ASF
:FULLY-SPECIFIED
:DEGREES
1
root -0.2831918606745606 16.702416086900058 -30.258282917568835 1.6084003649111591 -4.576285007358867 -5.02044675303071
lfemur -26.97009460909866 7.147174711757788 -12.865718018757551
ltibia 94.40937981163366
lfoot -1.1168782161125046 -9.64710131868525
ltoes -10.676598522997773
rfemur -17.44919978541734 4.343312785652666 33.86588872165731
rtibia 56.66049878408973
rfoot -27.75327996902339 -15.055683345282006
rtoes -10.540492856989642
lowerback 15.464692016943319 0.1836311904420781 2.417287608390278
upperback 0.1508702852767283 1.008721804655746 3.82695719431739
thorax -8.573685763251426 0.4716628248900946 2.518800519680975
lowerneck -16.514812584657655 -2.5592823808363017 -3.0392506926705214
upperneck 15.03918796663534 -3.1712220406641136 2.3124172877758102
head 7.425307398417367 -1.4722115051279827 0.901101312194684
lclavicle 3.072422923294333e-16 -4.306755806623404e-16
lhumerus -52.719597180362044 -8.897679327612956 99.5378920295753
lradius 105.17001345508714
lwrist 30.99240096513331
lhand -26.469694835654686 6.283834715895495
lfingers 7.125020000000001
lthumb 0.09208666452979664 36.26358466552495
rclavicle 3.072422923294333e-16 -4.306755806623404e-16
rhumerus -40.18770401782585 13.116385588818433 -97.90019088862451
rradius 100.92900396627388
rwrist -17.728013811928033
rhand -21.955472433130424 37.90890199035269
rfingers 7.125020000000001
rthumb 4.451737571646563 7.975662437150205
2
root -0.26650764147319606 16.73791549474167 -29.424883271708104 2.204036638832982 -4.386215551349678 -5.654904357569684
lfemur -31.848192241040834 7.750152829069309 -12.335719016449637
ltibia 94.24037988938102
lfoot -3.150507053704943 -8.976362309175329
ltoes -9.995029269102401
rfemur -13.990401379035513 4.4527124496892485 34.61818730110072
rtibia 54.732199702612
rfoot -27.180080376564067 -16.279881085451414
rtoes -13.637390171996001
lowerback 14.580596355557201 0.6360353871241322 4.049133414897231
upperback 0.5858097655156769 1.7659887753657388 3.2395423155708354
thorax -7.555369086377317 0.7714860774808694 0.7971064571958243
lowerneck -17.434406416503958 -3.0574580983830657 -2.0820597752828327
upperneck 14.581591739941858 -4.072376989854179 2.405136506120873
head 7.439676952649322 -1.8319469362124958 0.6641560534042458
lclavicle 3.0724218946231895e-16 -4.30675689117533e-16
lhumerus -54.05439619670972 -10.332905988862628 98.924394824165
lradius 105.9360115315907
lwrist 32.49189204064462
lhand -25.53640205295216 6.231934984662474
lfingers 7.125020000000001
lthumb 0.9935439465998068 36.20938494665754
rclavicle 3.0724218946231895e-16 -4.30675689117533e-16
rhumerus -36.196607127159005 13.366684841843107 -98.10258980214559
rradius 102.72799952575924
rwrist -18.624806819630606
rhand -21.25627871971771 37.830202405183954
rfingers 7.125020000000001
rthumb 5.126931282393452 7.912272770470963
3
root -0.24540862887812215 16.85911347306289 -28.555183641272315 2.4434051414329883 -4.255615925134082 -5.935663297534941
lfemur -35.86659029032165 7.7519228235428415 -12.593718530780649
ltibia 92.07318088638756
lfoot -3.925266610857989 -8.148623531509248
ltoes -7.361802151660463
rfemur -9.645913380729233 5.000210768336655 34.84598687094945
rtibia 52.06640097243343
rfoot -26.087281153536285 -14.961883518433563
rtoes -15.988788133346363
lowerback 15.226793184408812 1.1222083745582239 4.066553370131692
upperback -0.0027237323425081117 2.5194857611567754 3.5694894389960323
thorax -8.563935890813688 1.1224458614856458 0.971457754652476
lowerneck -16.99720934899286 -3.3910252309497553 -2.593729574604749
upperneck 14.862089426977526 -4.390815205065775 2.2771375851958524
head 7.472895922140311 -2.027664450450168 0.6724518173856657
lclavicle 3.0724216979655607e-16 -4.306756773741166e-16
lhumerus -57.30249380309185 -9.803837219628878 99.80509081243697
lradius 106.73100953527255
lwrist 32.83339000815854
lhand -25.54480198799416 4.417314381822952
lfingers 7.125020000000001
lthumb 0.98541101171987 34.394794358893414
rclavicle 3.0724216979655607e-16 -4.306756773741166e-16
rhumerus -35.13380795515112 14.118582597932795 -97.28549418832111
rradius 105.00999389304421
rwrist -18.934404405697418
rhand -20.666984018181513 39.11779561818605
rfingers 7.125020000000001
rthumb 5.695855983008412 9.214325923908016
4
root -0.2022426489869319 17.04351039717537 -27.63758403119082 3.1217208981428284 -3.2398488323238146 -5.797883817735778
lfemur -39.35018859921933 6.496486743411517 -13.558216715169305
ltibia 88.10808271050658
lfoot -5.6726456120687585 -5.721587115549312
ltoes -10.660998540074864
rfemur -5.817335144720973 4.734271585028726 34.486987548843686
rtibia 48.860102499715474
rfoot -23.266283159245173 -13.827685612127281
rtoes -20.515884208377937
lowerback 14.775395399599745 1.3963566758010995 4.780341535849496
upperback -0.41011830548077166 2.9676339684324935 3.1721029035272084
thorax -8.690214238653446 1.2925743025256784 0.05435115010617153
lowerneck -17.4786061200355 -3.8251014995127246 -2.338264667567597
upperneck 15.30278579302608 -5.06017145344549 2.3397170576293496
head 7.713108470337943 -2.317410770449992 0.5623329503217845
lclavicle 3.0724222486072265e-16 -4.3067570707825673e-16
lhumerus -59.82169194662128 -10.15520640224302 99.842890640252
lradius 107.36100795328461
lwrist 33.06648862083055
lhand -25.838099719877427 3.5685387772765043
lfingers 7.125020000000001
lthumb 0.7020782803529587 33.54709875586926
rclavicle 3.0724222486072265e-16 -4.3067570707825673e-16
rhumerus -33.90180891496129 13.701183843588009 -96.9397960440314
rradius 107.02198892677661
rwrist -18.984204017409716
rhand -20.207888146002198 38.43179923412311
rfingers 7.125020000000001
rthumb 6.13913185400942 8.540749465763128
5
root -0.15108104328009098 17.25070694097204 -26.6656844441833 3.644977624844079 -2.4515910883673744 -5.477565027132873
lfemur -41.661887477012115 5.082621157947268 -14.643414672347689
ltibia 82.80778514887587
lfoot -5.0596759624377965 -4.490738933160796
ltoes -5.501114188530382
rfemur -1.9065169466042615 4.598442002157712 33.75328893427817
rtibia 45.72060399517812
rfoot -18.635286451849844 -11.016890800766284
rtoes -20.87188389972805
lowerback 13.434401980395153 1.5643056351071025 5.164780547923837
upperback -0.7267725588202352 3.1569632110599892 2.963184724936543
thorax -8.233070219688083 1.3719935747727772 -0.3856777768103976
lowerneck -16.129715167689398 -4.079519312468379 -2.674317967989977
upperneck 14.723990565731091 -5.358999778566964 2.4481161437877255
head 7.310110972006714 -2.4875386096961356 0.6462535627389409
lclavicle 3.072423464858486e-16 -4.306755371422323e-16
lhumerus -61.86559044041288 -9.146908747833589 99.75739102971804
lradius 107.40700783777437
lwrist 33.10238840716657
lhand -26.903291482584734 4.038716342423716
lfingers 7.125020000000001
lthumb -0.3266474826837571 34.018196312298045
rclavicle 3.072423464858486e-16 -4.306755371422323e-16
rhumerus -33.34510934866774 13.83848343384085 -96.48059850900727
rradius 108.46698536004865
rwrist -18.955304242741335
rhand -20.50178550351363 38.745097582704624
rfingers 7.125020000000001
rthumb 5.855404496855667 8.845987860733503
6
root -0.11678764816406956 17.442403743316742 -25.726984843067996 3.58586799461186 -1.3025743769259521 -5.31291564878381
lfemur -42.638787002779054 3.4091863829401796 -15.222513582227922
ltibia 76.45308807231508
lfoot -7.123364782848173 -4.105689501768886
ltoes -11.515097605104184
rfemur 2.0649812235545753 4.288292954617088 33.3685896607013
rtibia 42.48600553594051
rfoot -12.044391137928136 -8.777834933993113
rtoes -21.785983107208885
lowerback 13.34330242745739 1.6275452432435227 5.508489664665283
upperback -1.1968205127816947 3.304442621099084 2.777676342252483
thorax -8.657294669355974 1.4065332582708243 -0.8070410789395465
lowerneck -14.653125071882247 -4.231538005674568 -2.858664292851209
upperneck 14.32169388304143 -5.594898456397688 2.6998540215507347
head 6.944882302022104 -2.6068870938789797 0.7634692278954132
lclavicle 3.0724232712265935e-16 -4.306756200378667e-16
lhumerus -64.21688870767264 -8.12328112908606 99.41549258712669
lradius 107.55600746362167
lwrist 32.34789289768122
lhand -27.76908478727117 4.4168743841015194
lfingers 7.125020000000001
lthumb -1.1629247866470704 34.39349436563646
rclavicle 3.0724232712265935e-16 -4.306756200378667e-16
rhumerus -33.45870926016573 13.603784134260788 -96.22279989287223
rradius 109.40498304476087
rwrist -18.78760555028848
rhand -20.95548142424497 38.53299870069333
rfingers 7.125020000000001
rthumb 5.417308577604762 8.62228903700505
7
root -0.08471684903359689 17.693899548166467 -24.74328526107476 3.283669885050422 -0.028518423354746192 -5.1164863904230184
lfemur -42.17368722856037 1.5078723194443313 -15.702412678845954
ltibia 68.26939183717413
lfoot -6.987254860647627 -5.418747562756913
ltoes -10.026999234105315
rfemur 6.202039317432774 3.3697357754814368 32.70419091527767
rtibia 38.644107365982876
rfoot -3.513347203437809 -5.901470243672042
rtoes -20.214284469863347
lowerback 12.729005442060387 1.8081641240404862 6.060448246250327
upperback -0.9065428640558213 3.527011730757364 2.360089982891595
thorax -7.919004328762889 1.506302344043847 -1.5738729890132455
lowerneck -15.307820680527076 -4.5167255541252525 -2.5616502141406956
upperneck 14.630691335070026 -6.0990556306882295 3.0100714063113623
head 7.173375213782818 -2.7929247310585055 0.7451917478987402
lclavicle 3.072423351402513e-16 -4.3067564145258236e-16
lhumerus -64.89358820899301 -7.935301566380641 98.65369605724639
lradius 107.37100792817368
lwrist 32.10739432905135
lhand -26.359395688615052 3.7137680251950234
lfingers 7.125020000000001
lthumb 0.19866331117513425 33.69339799701876
rclavicle 3.072423351402513e-16 -4.3067564145258236e-16
rhumerus -32.54870996911642 12.705686814478707 -95.62870308198845
rradius 109.85398193648345
rwrist -18.914904557737785
rhand -20.963581351416938 39.14819545794627
rfingers 7.125020000000001
rthumb 5.40955864979332 9.237205803599148
8
root -0.0472541022388992 17.89659616702547 -23.751285682608305 3.047841360305638 1.144148620397932 -4.858387364902882
lfemur -41.16168771983254 -0.20650232773552646 -16.19761174666272
ltibia 59.29129596749178
lfoot -6.63617506132229 -7.366114687051478
ltoes -10.649398552773214
rfemur 9.984767574566092 2.524658370691376 31.836292554119982
rtibia 34.745609222986005
rfoot 7.6509748588110735 -3.017405567564894
rtoes -18.4647859866693
lowerback 12.239907842259514 1.9592031881284817 6.2001878871494815
upperback -0.7439503013251547 3.682981106834113 2.1761015869558458
thorax -7.432560693138475 1.5920315584702363 -1.8496218778913291
lowerneck -15.772017566937523 -4.963931709820158 -2.604279364283545
upperneck 14.934488829977106 -6.731992083194288 3.1834599445862812
head 7.378808840881817 -3.0716911905109683 0.7238303556408935
lclavicle 3.072422160866662e-16 -4.3067563454459837e-16
lhumerus -65.47358778157441 -7.394702823968929 98.20649809431325
lradius 107.15200847810283
lwrist 32.150294073725874
lhand -26.233396662985008 3.135171021506698
lfingers 7.125020000000001
lthumb 0.3203363369444085 33.11470099870558
rclavicle 3.072422160866662e-16 -4.3067563454459837e-16
rhumerus -32.093910323436006 12.0297888315807 -94.80560750037183
rradius 109.78998209445618
rwrist -18.619906857835623
rhand -20.211988109138627 38.75499753052128
rfingers 7.125020000000001
rthumb 6.135191890709149 8.863847766821076
